<!DOCTYPE svg PUBLIC "-//W3C//DTD SVG 20010904//EN" "http://www.w3.org/TR/2001/REC-SVG-20010904/DTD/svg10.dtd">
<svg version="1.0" xmlns="http://www.w3.org/2000/svg" width="408px" height="290px" viewBox="0 0 4080 2900" preserveAspectRatio="xMidYMid meet">
<g id="layer101" fill="#000000" stroke="none">
 <path d="M1735 2880 c-91 -12 -230 -52 -319 -94 -80 -37 -214 -135 -270 -196 -62 -69 -130 -181 -156 -258 l-25 -73 -45 7 c-52 7 -266 62 -358 92 l-62 20 -55 -80 c-30 -44 -55 -84 -55 -88 0 -11 26 -18 235 -64 459 -101 855 -138 1259 -117 115 6 211 10 213 8 4 -5 -341 -60 -472 -76 -254 -32 -444 -35 -593 -9 -35 6 -65 8 -68 6 -8 -9 38 -143 68 -198 85 -153 211 -274 378 -363 160 -85 306 -121 485 -121 246 1 394 71 918 433 178 123 320 193 532 266 17 6 10 16 -60 81 -366 342 -755 625 -1022 745 -168 75 -346 102 -528 79z"/>
 <path d="M514 1014 c-23 -8 -60 -31 -83 -51 -89 -76 -126 -173 -119 -317 6 -143 57 -235 160 -291 44 -24 68 -30 141 -33 138 -7 219 35 275 142 21 42 26 65 26 131 l1 80 -239 3 -239 2 6 50 c11 92 66 165 143 190 54 18 130 7 208 -32 l68 -33 24 28 c13 15 24 34 24 42 0 19 -75 68 -134 88 -62 21 -204 21 -262 1z m286 -444 c0 -40 -34 -105 -65 -126 -59 -39 -156 -36 -216 6 -25 19 -58 75 -74 128 l-6 22 180 0 181 0 0 -30z"/>
 <path d="M2190 526 l0 -506 65 0 65 0 0 195 0 195 48 -34 c59 -42 101 -56 165 -56 111 0 185 48 233 152 27 59 29 71 29 193 0 121 -2 134 -28 190 -56 120 -139 175 -265 175 -79 0 -117 -14 -164 -58 l-28 -26 0 25 c0 39 -15 51 -69 57 l-51 5 0 -507z m370 382 c36 -19 51 -35 75 -82 27 -53 30 -68 30 -155 0 -84 -4 -103 -27 -151 -33 -67 -68 -90 -136 -90 -66 0 -99 13 -144 58 l-38 36 0 166 0 166 28 27 c55 52 138 62 212 25z"/>
 <path d="M3010 1019 c-32 -13 -68 -47 -86 -81 -19 -36 -18 -132 1 -169 37 -71 165 -126 319 -136 l88 -6 -5 -58 c-9 -103 -51 -145 -143 -143 -39 1 -66 10 -108 33 -66 38 -100 38 -124 -1 -15 -25 -15 -28 2 -46 9 -11 45 -35 79 -53 55 -30 72 -34 157 -37 84 -3 100 -1 139 20 25 13 58 40 74 60 47 59 57 124 57 386 l0 233 -52 -3 c-51 -3 -53 -4 -61 -40 l-9 -38 -32 25 c-61 47 -116 65 -196 64 -41 0 -86 -5 -100 -10z m228 -103 c16 -8 44 -27 61 -42 29 -24 31 -30 31 -91 l0 -66 -83 5 c-134 9 -218 57 -217 125 1 27 24 64 51 80 30 17 114 11 157 -11z"/>
 <path d="M3700 1021 c-37 -12 -105 -48 -118 -63 -8 -10 -6 -21 10 -46 24 -39 49 -41 109 -8 57 32 106 40 156 27 47 -13 80 -46 89 -87 10 -50 -25 -79 -150 -124 -123 -45 -166 -73 -191 -126 -24 -52 -15 -133 21 -185 63 -91 227 -120 353 -63 80 35 87 45 65 84 -22 36 -48 39 -106 9 -57 -29 -156 -24 -193 11 -33 31 -34 78 -2 108 13 12 67 38 122 57 161 57 205 99 205 199 0 89 -41 153 -125 192 -41 20 -65 24 -135 23 -47 0 -96 -4 -110 -8z"/>
 <path d="M20 520 l0 -500 65 0 65 0 0 500 0 500 -65 0 -65 0 0 -500z"/>
 <path d="M1070 675 l0 -345 50 0 c53 0 70 15 70 61 0 22 1 22 33 -8 50 -48 89 -63 160 -63 76 0 119 24 153 83 l21 37 31 -39 c46 -57 103 -81 191 -81 82 0 133 20 174 70 49 58 57 110 57 382 l0 248 -65 0 -65 0 0 -243 c0 -232 -1 -245 -22 -287 -57 -112 -219 -79 -247 51 -6 27 -11 147 -11 264 l0 215 -65 0 -64 0 -3 -264 -3 -265 -29 -30 c-52 -55 -125 -51 -199 10 l-37 30 0 260 0 259 -65 0 -65 0 0 -345z"/>
 </g>
<g id="layer102" fill="#44d04f" stroke="none">
 <path d="M1735 2880 c-91 -12 -230 -52 -319 -94 -80 -37 -214 -135 -270 -196 -62 -69 -130 -181 -156 -258 l-25 -73 -45 7 c-52 7 -266 62 -358 92 l-62 20 -55 -80 c-30 -44 -55 -84 -55 -88 0 -11 26 -18 235 -64 459 -101 855 -138 1259 -117 115 6 211 10 213 8 4 -5 -341 -60 -472 -76 -254 -32 -444 -35 -593 -9 -35 6 -65 8 -68 6 -8 -9 38 -143 68 -198 85 -153 211 -274 378 -363 160 -85 306 -121 485 -121 246 1 394 71 918 433 178 123 320 193 532 266 17 6 10 16 -60 81 -366 342 -755 625 -1022 745 -168 75 -346 102 -528 79z"/>
 </g>

</svg>