<!DOCTYPE svg PUBLIC "-//W3C//DTD SVG 20010904//EN" "http://www.w3.org/TR/2001/REC-SVG-20010904/DTD/svg10.dtd">
<svg version="1.0" xmlns="http://www.w3.org/2000/svg" width="184px" height="102px" viewBox="0 0 1840 1020" preserveAspectRatio="xMidYMid meet">
<g id="layer101" fill="#010101" stroke="none">
 <path d="M0 510 l0 -510 920 0 920 0 0 510 0 510 -920 0 -920 0 0 -510z"/>
 </g>
<g id="layer102" fill="#2f2f2f" stroke="none">
 <path d="M0 510 l0 -510 920 0 920 0 0 510 0 510 -920 0 -920 0 0 -510z m460 -17 c0 -9 -3 -13 -7 -10 -3 4 -12 2 -20 -4 -10 -9 -13 -48 -13 -161 0 -115 -3 -149 -12 -145 -10 3 -13 42 -13 153 0 82 3 157 7 167 10 23 58 23 58 0z m149 8 c18 -12 2 -20 -37 -19 -34 1 -61 -23 -62 -54 0 -15 9 -18 56 -18 l55 0 -3 -42 c-6 -86 -91 -100 -125 -21 -31 76 7 163 71 163 17 0 37 -4 45 -9z m82 -53 c1 -78 9 -108 32 -122 31 -19 47 17 47 106 0 63 3 78 15 78 12 0 15 -15 15 -78 0 -89 16 -125 47 -106 15 9 19 27 21 98 2 67 6 86 17 86 12 0 15 -16 15 -74 0 -41 -4 -86 -10 -100 -18 -47 -72 -57 -85 -15 -6 19 -8 19 -30 -5 -29 -31 -39 -32 -65 -6 -16 16 -20 17 -20 5 0 -8 -4 -15 -10 -15 -6 0 -10 42 -10 105 0 63 4 105 10 105 6 0 10 -28 11 -62z m384 38 c46 -46 43 -142 -7 -179 -25 -19 -28 -19 -52 -3 l-26 16 0 -75 c0 -60 -3 -75 -15 -75 -13 0 -15 24 -15 160 0 141 2 160 18 169 30 18 72 12 97 -13z m143 12 c9 -9 12 -9 12 0 0 7 7 12 15 12 12 0 15 -14 15 -64 0 -87 -9 -125 -34 -141 -25 -16 -76 -9 -76 11 0 10 9 12 31 7 34 -7 49 6 49 45 0 17 -6 22 -25 22 -27 0 -75 40 -75 62 0 43 60 74 88 46z m180 -20 c17 -36 2 -72 -37 -89 -34 -15 -44 -31 -34 -55 4 -12 14 -14 34 -10 38 7 40 -19 3 -28 -36 -9 -64 17 -64 60 0 28 6 38 40 59 22 14 40 32 40 40 0 21 -30 34 -56 25 -16 -6 -24 -5 -28 5 -6 18 10 24 54 22 27 -2 38 -8 48 -29z"/>
 <path d="M510 367 c0 -19 33 -47 54 -47 13 0 36 35 36 56 0 2 -20 4 -45 4 -31 0 -45 -4 -45 -13z"/>
 <path d="M1003 483 c-9 -3 -13 -26 -13 -67 0 -48 4 -67 18 -79 24 -22 35 -21 55 1 21 23 22 90 2 119 -15 22 -42 33 -62 26z"/>
 <path d="M1164 468 c-5 -16 -1 -27 16 -40 31 -25 50 -23 50 6 0 48 -53 75 -66 34z"/>
 </g>
<g id="layer103" fill="#107e24" stroke="none">
 <path d="M0 510 l0 -510 920 0 920 0 0 510 0 510 -920 0 -920 0 0 -510z m460 -14 c0 -7 -9 -16 -20 -19 -19 -5 -20 -14 -20 -157 0 -117 -3 -151 -12 -148 -17 6 -24 289 -8 318 12 23 60 28 60 6z m155 -6 c0 -11 -9 -14 -36 -12 -29 3 -40 -1 -53 -20 -28 -39 -21 -48 39 -48 l55 0 0 -39 c0 -31 -6 -44 -26 -60 -34 -27 -47 -26 -81 3 -24 21 -27 31 -28 84 0 51 4 65 25 87 20 21 32 25 65 23 27 -2 40 -8 40 -18z m76 -42 c1 -78 9 -108 32 -122 31 -19 47 17 47 106 0 63 3 78 15 78 12 0 15 -15 15 -78 0 -89 16 -125 47 -106 15 9 19 27 21 98 2 67 6 86 17 86 12 0 15 -16 15 -74 0 -85 -10 -120 -40 -136 -24 -13 -60 3 -60 27 0 12 -6 9 -25 -11 -29 -31 -39 -32 -65 -6 -16 16 -20 17 -20 5 0 -8 -4 -15 -10 -15 -6 0 -10 42 -10 105 0 63 4 105 10 105 6 0 10 -28 11 -62z m384 38 c68 -68 22 -217 -58 -187 l-27 11 0 -70 c0 -56 -3 -70 -15 -70 -13 0 -15 24 -15 160 0 141 2 160 18 169 30 18 72 12 97 -13z m143 12 c9 -9 12 -9 12 0 0 7 7 12 15 12 12 0 15 -15 15 -74 0 -83 -10 -120 -37 -134 -24 -13 -73 -3 -73 14 0 10 7 13 25 8 31 -8 55 10 55 42 0 18 -6 24 -21 24 -54 0 -88 45 -69 91 9 22 19 29 39 29 15 0 32 -5 39 -12z m172 -4 c22 -26 16 -76 -10 -93 -13 -9 -33 -24 -44 -33 -20 -16 -20 -17 -3 -35 14 -15 21 -16 37 -5 17 11 20 10 20 -7 0 -28 -48 -38 -71 -14 -36 37 -28 77 22 108 51 33 50 60 -4 61 -42 1 -58 11 -37 24 23 15 76 12 90 -6z"/>
 <path d="M510 372 c0 -15 32 -52 45 -52 13 0 45 37 45 52 0 5 -20 8 -45 8 -25 0 -45 -3 -45 -8z"/>
 <path d="M990 417 c0 -49 4 -68 18 -80 10 -10 24 -17 30 -17 19 0 42 43 42 80 0 49 -24 80 -61 80 l-29 0 0 -63z"/>
 <path d="M1172 478 c-7 -7 -12 -18 -12 -24 0 -15 38 -44 57 -44 19 0 16 45 -5 63 -22 20 -25 20 -40 5z"/>
 </g>
<g id="layer104" fill="#118526" stroke="none">
 <path d="M0 510 l0 -510 920 0 920 0 0 510 0 510 -920 0 -920 0 0 -510z m810 230 c0 -5 -5 -10 -11 -10 -5 0 -7 5 -4 10 3 6 8 10 11 10 2 0 4 -4 4 -10z m426 -51 c8 -13 -21 1 -51 26 -19 15 -18 15 12 1 17 -9 35 -21 39 -27z m-411 21 c3 -5 2 -10 -4 -10 -5 0 -13 5 -16 10 -3 6 -2 10 4 10 5 0 13 -4 16 -10z m29 -18 c3 -5 -1 -9 -9 -9 -8 0 -12 4 -9 9 3 4 7 8 9 8 2 0 6 -4 9 -8z m67 -89 c21 -25 18 -28 -12 -12 -11 5 -17 14 -14 19 3 5 -2 13 -12 18 -9 5 -18 18 -19 28 -2 16 1 14 17 -6 11 -14 29 -35 40 -47z m-391 18 c0 -6 -4 -12 -8 -15 -5 -3 -9 1 -9 9 0 8 4 15 9 15 4 0 8 -4 8 -9z m-70 -125 c0 -7 -9 -16 -20 -19 -19 -5 -20 -14 -20 -157 0 -117 -3 -151 -12 -148 -17 6 -24 289 -8 318 12 23 60 28 60 6z m155 -6 c0 -11 -9 -14 -36 -12 -29 3 -40 -1 -53 -20 -28 -39 -21 -48 39 -48 l55 0 0 -39 c0 -31 -6 -44 -26 -60 -34 -27 -47 -26 -81 3 -24 21 -27 31 -28 84 0 51 4 65 25 87 20 21 32 25 65 23 27 -2 40 -8 40 -18z m76 -42 c1 -78 9 -108 32 -122 31 -19 47 17 47 106 0 63 3 78 15 78 12 0 15 -15 15 -78 0 -89 16 -125 47 -106 15 9 19 27 21 98 2 67 6 86 17 86 12 0 15 -16 15 -74 0 -85 -10 -120 -40 -136 -24 -13 -60 3 -60 27 0 12 -6 9 -25 -11 -29 -31 -39 -32 -65 -6 -16 16 -20 17 -20 5 0 -8 -4 -15 -10 -15 -6 0 -10 42 -10 105 0 63 4 105 10 105 6 0 10 -28 11 -62z m384 38 c68 -68 22 -217 -58 -187 l-27 11 0 -70 c0 -56 -3 -70 -15 -70 -13 0 -15 24 -15 160 0 141 2 160 18 169 30 18 72 12 97 -13z m143 12 c9 -9 12 -9 12 0 0 7 7 12 15 12 12 0 15 -15 15 -74 0 -83 -10 -120 -37 -134 -24 -13 -73 -3 -73 14 0 10 7 13 25 8 31 -8 55 10 55 42 0 18 -6 24 -21 24 -54 0 -88 45 -69 91 9 22 19 29 39 29 15 0 32 -5 39 -12z m172 -4 c22 -26 16 -76 -10 -93 -13 -9 -33 -24 -44 -33 -20 -16 -20 -17 -3 -35 14 -15 21 -16 37 -5 17 11 20 10 20 -7 0 -28 -48 -38 -71 -14 -36 37 -28 77 22 108 51 33 50 60 -4 61 -42 1 -58 11 -37 24 23 15 76 12 90 -6z"/>
 <path d="M510 372 c0 -15 32 -52 45 -52 13 0 45 37 45 52 0 5 -20 8 -45 8 -25 0 -45 -3 -45 -8z"/>
 <path d="M990 417 c0 -49 4 -68 18 -80 10 -10 24 -17 30 -17 19 0 42 43 42 80 0 49 -24 80 -61 80 l-29 0 0 -63z"/>
 <path d="M1172 478 c-7 -7 -12 -18 -12 -24 0 -15 38 -44 57 -44 19 0 16 45 -5 63 -22 20 -25 20 -40 5z"/>
 </g>
<g id="layer105" fill="#535353" stroke="none">
 <path d="M0 510 l0 -510 920 0 920 0 0 510 0 510 -920 0 -920 0 0 -510z m1050 265 c47 -15 116 -41 154 -58 l69 -31 -70 -12 c-39 -6 -106 -28 -149 -47 -100 -45 -146 -57 -213 -57 -74 0 -124 17 -172 58 l-41 35 -41 -22 c-23 -12 -53 -28 -67 -36 -28 -17 -70 -20 -70 -6 0 16 124 70 207 91 43 11 116 24 163 29 l85 10 -110 -4 c-60 -3 -122 -7 -137 -11 -37 -8 -36 10 1 45 44 41 84 51 201 47 81 -3 125 -10 190 -31z m-590 -279 c0 -7 -9 -16 -20 -19 -19 -5 -20 -14 -20 -157 0 -117 -3 -151 -12 -148 -17 6 -24 289 -8 318 12 23 60 28 60 6z m155 -6 c0 -11 -9 -14 -36 -12 -29 3 -40 -1 -53 -20 -28 -39 -21 -48 39 -48 l55 0 0 -39 c0 -31 -6 -44 -26 -60 -34 -27 -47 -26 -81 3 -24 21 -27 31 -28 84 0 51 4 65 25 87 20 21 32 25 65 23 27 -2 40 -8 40 -18z m76 -42 c1 -78 9 -108 32 -122 31 -19 47 17 47 106 0 63 3 78 15 78 12 0 15 -15 15 -78 0 -89 16 -125 47 -106 15 9 19 27 21 98 2 67 6 86 17 86 12 0 15 -16 15 -74 0 -85 -10 -120 -40 -136 -24 -13 -60 3 -60 27 0 12 -6 9 -25 -11 -29 -31 -39 -32 -65 -6 -16 16 -20 17 -20 5 0 -8 -4 -15 -10 -15 -6 0 -10 42 -10 105 0 63 4 105 10 105 6 0 10 -28 11 -62z m384 38 c68 -68 22 -217 -58 -187 l-27 11 0 -70 c0 -56 -3 -70 -15 -70 -13 0 -15 24 -15 160 0 141 2 160 18 169 30 18 72 12 97 -13z m143 12 c9 -9 12 -9 12 0 0 7 7 12 15 12 12 0 15 -15 15 -74 0 -83 -10 -120 -37 -134 -24 -13 -73 -3 -73 14 0 10 7 13 25 8 31 -8 55 10 55 42 0 18 -6 24 -21 24 -54 0 -88 45 -69 91 9 22 19 29 39 29 15 0 32 -5 39 -12z m172 -4 c22 -26 16 -76 -10 -93 -13 -9 -33 -24 -44 -33 -20 -16 -20 -17 -3 -35 14 -15 21 -16 37 -5 17 11 20 10 20 -7 0 -28 -48 -38 -71 -14 -36 37 -28 77 22 108 51 33 50 60 -4 61 -42 1 -58 11 -37 24 23 15 76 12 90 -6z"/>
 <path d="M510 372 c0 -15 32 -52 45 -52 13 0 45 37 45 52 0 5 -20 8 -45 8 -25 0 -45 -3 -45 -8z"/>
 <path d="M990 417 c0 -49 4 -68 18 -80 10 -10 24 -17 30 -17 19 0 42 43 42 80 0 49 -24 80 -61 80 l-29 0 0 -63z"/>
 <path d="M1172 478 c-7 -7 -12 -18 -12 -24 0 -15 38 -44 57 -44 19 0 16 45 -5 63 -22 20 -25 20 -40 5z"/>
 </g>
<g id="layer106" fill="#9acba2" stroke="none">
 <path d="M0 510 l0 -510 920 0 920 0 0 510 0 510 -920 0 -920 0 0 -510z m1050 265 c47 -15 116 -41 154 -58 l69 -31 -70 -12 c-39 -6 -106 -28 -149 -47 -100 -45 -146 -57 -213 -57 -74 0 -124 17 -172 58 l-41 35 -41 -22 c-23 -12 -53 -28 -67 -36 -28 -17 -70 -20 -70 -6 0 16 124 70 207 91 43 11 116 24 163 29 l85 10 -110 -4 c-60 -3 -122 -7 -137 -11 -37 -8 -36 10 1 45 44 41 84 51 201 47 81 -3 125 -10 190 -31z m-590 -279 c0 -7 -9 -16 -20 -19 -19 -5 -20 -14 -20 -157 0 -117 -3 -151 -12 -148 -17 6 -24 289 -8 318 12 23 60 28 60 6z m155 -6 c0 -11 -9 -14 -36 -12 -29 3 -40 -1 -53 -20 -28 -39 -21 -48 39 -48 57 0 59 -1 56 -50 -2 -26 -43 -70 -65 -70 -26 0 -65 41 -72 75 -9 48 3 102 27 126 25 25 104 24 104 -1z m85 -56 c0 -79 11 -114 35 -114 24 0 35 35 35 114 0 61 3 76 15 76 12 0 15 -15 15 -78 0 -89 16 -125 47 -106 15 9 19 27 21 98 2 67 6 86 17 86 12 0 15 -17 15 -84 0 -69 -4 -88 -21 -110 -24 -31 -42 -33 -67 -8 -18 18 -19 18 -42 0 -14 -11 -30 -16 -39 -12 -9 4 -26 6 -38 5 -22 -1 -23 2 -23 104 0 87 3 105 15 105 12 0 15 -15 15 -76z m379 50 c43 -55 38 -140 -11 -177 -23 -17 -31 -19 -53 -9 l-25 12 0 -70 c0 -56 -3 -70 -15 -70 -13 0 -15 24 -15 158 0 110 4 162 12 170 7 7 29 12 49 12 29 0 43 -6 58 -26z m139 14 c9 -9 12 -9 12 0 0 7 7 12 15 12 12 0 15 -15 15 -74 0 -85 -10 -120 -39 -136 -25 -13 -71 -3 -71 16 0 10 7 13 25 8 31 -8 55 10 55 42 0 19 -5 24 -25 24 -25 0 -75 39 -75 59 0 5 4 21 10 35 7 20 17 26 38 26 15 0 33 -5 40 -12z m177 -12 c23 -35 10 -73 -36 -102 -43 -27 -47 -35 -23 -55 12 -10 20 -10 34 -1 14 9 19 8 24 -4 7 -17 -35 -40 -58 -31 -8 3 -22 17 -31 30 -21 33 -7 68 40 96 48 28 45 56 -8 57 -42 1 -58 11 -37 24 29 19 79 11 95 -14z"/>
 <path d="M510 372 c0 -15 32 -52 45 -52 13 0 45 37 45 52 0 5 -20 8 -45 8 -25 0 -45 -3 -45 -8z"/>
 <path d="M990 417 c0 -49 4 -68 18 -80 10 -10 24 -17 30 -17 19 0 42 43 42 80 0 49 -24 80 -61 80 l-29 0 0 -63z"/>
 <path d="M1163 464 c-7 -18 12 -39 45 -49 18 -5 22 -3 22 17 0 43 -53 68 -67 32z"/>
 </g>
<g id="layer107" fill="#dbdbdb" stroke="none">
 <path d="M0 510 l0 -510 920 0 920 0 0 510 0 510 -920 0 -920 0 0 -510z m1050 265 c47 -15 116 -41 154 -58 l69 -31 -70 -12 c-39 -6 -106 -28 -149 -47 -100 -45 -146 -57 -213 -57 -74 0 -124 17 -172 58 l-41 35 -41 -22 c-23 -12 -53 -28 -67 -36 -27 -16 -70 -20 -70 -7 0 16 97 61 186 86 49 14 130 30 179 35 l90 10 -110 -4 c-60 -1 -122 -8 -137 -14 -23 -9 -28 -8 -28 5 0 22 52 68 92 82 60 20 232 8 328 -23z m-590 -279 c0 -7 -9 -16 -20 -19 -19 -5 -20 -14 -20 -157 0 -117 -3 -151 -12 -148 -17 6 -24 289 -8 318 12 23 60 28 60 6z m155 -6 c0 -11 -9 -14 -36 -12 -29 3 -40 -1 -53 -20 -28 -39 -21 -48 39 -48 57 0 59 -1 56 -50 -2 -26 -43 -70 -65 -70 -26 0 -65 41 -72 75 -9 48 3 102 27 126 25 25 104 24 104 -1z m85 -56 c0 -79 11 -114 35 -114 24 0 35 35 35 114 0 61 3 76 15 76 12 0 15 -15 15 -78 0 -89 16 -125 47 -106 15 9 19 27 21 98 2 67 6 86 17 86 12 0 15 -17 15 -84 0 -69 -4 -88 -21 -110 -24 -31 -42 -33 -67 -8 -18 18 -19 18 -42 0 -14 -11 -30 -16 -39 -12 -9 4 -26 6 -38 5 -22 -1 -23 2 -23 104 0 87 3 105 15 105 12 0 15 -15 15 -76z m379 50 c43 -55 38 -140 -11 -177 -23 -17 -31 -19 -53 -9 l-25 12 0 -70 c0 -56 -3 -70 -15 -70 -13 0 -15 24 -15 158 0 110 4 162 12 170 7 7 29 12 49 12 29 0 43 -6 58 -26z m139 14 c9 -9 12 -9 12 0 0 7 7 12 15 12 12 0 15 -15 15 -74 0 -85 -10 -120 -39 -136 -25 -13 -71 -3 -71 16 0 10 7 13 25 8 31 -8 55 10 55 42 0 19 -5 24 -25 24 -25 0 -75 39 -75 59 0 5 4 21 10 35 7 20 17 26 38 26 15 0 33 -5 40 -12z m177 -12 c23 -35 10 -73 -36 -102 -43 -27 -47 -35 -23 -55 12 -10 20 -10 34 -1 14 9 19 8 24 -4 7 -17 -35 -40 -58 -31 -8 3 -22 17 -31 30 -21 33 -7 68 40 96 48 28 45 56 -8 57 -42 1 -58 11 -37 24 29 19 79 11 95 -14z"/>
 <path d="M510 372 c0 -15 32 -52 45 -52 13 0 45 37 45 52 0 5 -20 8 -45 8 -25 0 -45 -3 -45 -8z"/>
 <path d="M990 417 c0 -49 4 -68 18 -80 10 -10 24 -17 30 -17 19 0 42 43 42 80 0 49 -24 80 -61 80 l-29 0 0 -63z"/>
 <path d="M1163 464 c-7 -18 12 -39 45 -49 18 -5 22 -3 22 17 0 43 -53 68 -67 32z"/>
 </g>
<g id="layer108" fill="#deefe1" stroke="none">
 <path d="M1 510 l0 -510 919 0 920 0 0 510 0 510 -919 0 -920 0 0 -510z m1049 265 c47 -15 116 -41 154 -58 l69 -31 -70 -12 c-39 -6 -106 -28 -149 -47 -100 -45 -146 -57 -213 -57 -74 0 -124 17 -172 58 l-41 35 -41 -22 c-23 -12 -53 -28 -67 -36 -27 -16 -70 -20 -70 -7 0 10 20 39 20 29 0 -4 18 2 40 13 61 31 205 69 305 79 l90 10 -110 -4 c-60 -1 -122 -8 -137 -14 -23 -9 -28 -8 -28 5 0 22 52 68 92 82 60 20 232 8 328 -23z m-590 -279 c0 -7 -9 -16 -20 -19 -19 -5 -20 -14 -20 -157 0 -117 -3 -151 -12 -148 -17 6 -24 289 -8 318 12 23 60 28 60 6z m155 -5 c0 -10 -12 -15 -40 -15 -32 -1 -42 -6 -54 -28 -9 -15 -13 -29 -11 -32 3 -3 33 -6 66 -7 l61 -2 -10 -31 c-19 -59 -30 -74 -54 -81 -70 -17 -120 94 -78 175 18 34 29 39 80 37 27 -1 40 -7 40 -16z m85 -57 c0 -79 11 -114 36 -114 22 0 34 43 34 121 0 52 3 69 14 69 11 0 15 -20 17 -85 4 -91 17 -118 47 -99 13 9 18 29 20 98 2 67 6 86 17 86 12 0 15 -17 15 -84 0 -69 -4 -88 -21 -110 -24 -31 -42 -33 -67 -8 -18 18 -19 18 -42 0 -14 -11 -30 -16 -39 -12 -9 4 -26 6 -38 5 -22 -1 -23 2 -23 104 0 87 3 105 15 105 12 0 15 -15 15 -76z m379 50 c43 -55 38 -140 -11 -177 -23 -17 -31 -19 -53 -9 l-25 12 0 -70 c0 -56 -3 -70 -15 -70 -13 0 -15 24 -15 158 0 110 4 162 12 170 7 7 29 12 49 12 29 0 43 -6 58 -26z m139 14 c9 -9 12 -9 12 0 0 7 7 12 15 12 12 0 15 -16 15 -85 0 -78 -2 -88 -25 -110 -27 -28 -33 -29 -69 -15 -18 6 -24 14 -19 25 4 12 9 13 16 6 24 -24 67 0 67 37 0 15 -9 21 -39 26 -30 4 -41 12 -50 34 -18 42 0 82 37 82 15 0 33 -5 40 -12z m177 -12 c23 -35 10 -73 -36 -102 -43 -27 -47 -35 -23 -55 12 -10 20 -10 34 -1 14 9 19 8 24 -3 7 -20 -30 -38 -60 -31 -30 8 -47 47 -35 80 5 12 26 33 45 44 38 22 41 28 27 51 -6 9 -20 12 -40 9 -34 -5 -52 9 -30 23 29 18 78 10 94 -15z"/>
 <path d="M510 371 c0 -5 9 -19 19 -32 16 -19 23 -22 37 -14 9 6 21 21 25 33 8 21 6 22 -36 22 -25 0 -45 -4 -45 -9z"/>
 <path d="M990 417 c0 -49 4 -68 18 -80 10 -10 24 -17 30 -17 19 0 42 43 42 80 0 49 -24 80 -61 80 l-29 0 0 -63z"/>
 <path d="M1164 465 c-9 -21 14 -45 42 -45 16 0 24 6 24 18 0 37 -54 59 -66 27z"/>
 </g>
<g id="layer109" fill="#fefefe" stroke="none">
 <path d="M1 510 l0 -509 685 -1 c548 0 684 2 678 12 -6 10 -5 10 8 0 12 -9 73 -12 242 -12 l226 1 0 509 0 510 -919 0 -919 0 -1 -510z m1374 460 c3 -5 4 -10 1 -10 -3 0 -8 5 -11 10 -3 6 -4 10 -1 10 3 0 8 -4 11 -10z m-1115 -15 c0 -8 -2 -15 -4 -15 -2 0 -6 7 -10 15 -3 8 -1 15 4 15 6 0 10 -7 10 -15z m1507 -7 c-3 -8 -6 -5 -6 6 -1 11 2 17 5 13 3 -3 4 -12 1 -19z m-1130 5 c-4 -3 -10 -3 -14 0 -3 4 0 7 7 7 7 0 10 -3 7 -7z m763 3 c0 -3 -5 -8 -12 -12 -7 -4 -8 -3 -4 4 7 12 16 16 16 8z m-404 -166 c43 -11 85 -18 92 -15 7 2 10 1 7 -5 -3 -5 14 -15 37 -22 24 -7 65 -24 91 -39 l48 -26 -58 -7 c-32 -4 -85 -18 -118 -33 -218 -94 -329 -98 -426 -15 l-40 35 -40 -19 c-22 -10 -46 -25 -52 -33 -13 -17 -87 -29 -87 -14 0 10 20 40 20 30 0 -4 17 1 38 12 53 27 159 61 211 68 80 10 101 23 28 18 -37 -3 -78 -10 -92 -15 -31 -12 -34 7 -7 39 52 63 196 80 348 41z m-535 -103 c-10 -9 -11 -8 -5 6 3 10 9 15 12 12 3 -3 0 -11 -7 -18z m-326 -47 c3 -5 4 -10 1 -10 -3 0 -8 5 -11 10 -3 6 -4 10 -1 10 3 0 8 -4 11 -10z m1134 -4 c9 -11 9 -16 -1 -22 -7 -4 -10 -4 -6 1 4 4 3 14 -3 22 -6 7 -9 13 -6 13 2 0 10 -6 16 -14z m-1104 -36 c3 -5 4 -10 1 -10 -3 0 -8 5 -11 10 -3 6 -4 10 -1 10 3 0 8 -4 11 -10z m785 -34 c0 -2 -7 -7 -16 -10 -8 -3 -12 -2 -9 4 6 10 25 14 25 6z m381 -13 c13 -16 12 -17 -3 -4 -17 13 -22 21 -14 21 2 0 10 -8 17 -17z m359 13 c0 -3 -5 -8 -12 -12 -7 -4 -8 -3 -4 4 7 12 16 16 16 8z m-1110 -10 c0 -3 -5 -8 -12 -12 -7 -4 -8 -3 -4 4 7 12 16 16 16 8z m385 -16 c3 -5 4 -10 1 -10 -3 0 -8 5 -11 10 -3 6 -4 10 -1 10 3 0 8 -4 11 -10z m401 -30 c7 0 21 -11 29 -24 23 -35 10 -73 -36 -102 -43 -27 -47 -35 -23 -55 12 -10 20 -10 34 -1 14 9 19 8 24 -3 7 -20 -30 -38 -60 -31 -54 14 -50 92 5 120 36 19 43 29 35 51 -5 12 -16 15 -43 13 -27 -2 -36 1 -36 12 0 8 10 16 23 18 12 2 22 9 23 15 0 9 2 8 6 0 2 -7 11 -13 19 -13z m-736 -15 c13 -8 13 -25 -1 -25 -5 0 -7 5 -3 12 5 7 3 8 -6 3 -8 -5 -30 -9 -49 -9 -27 -1 -38 -7 -50 -28 -9 -15 -13 -29 -11 -32 3 -3 33 -6 66 -7 l61 -2 -10 -31 c-19 -59 -30 -74 -54 -81 -96 -24 -132 171 -39 210 27 12 68 8 96 -10z m449 -9 c30 -32 39 -117 17 -150 -24 -37 -53 -50 -82 -37 l-24 11 0 -70 c0 -56 -3 -70 -15 -70 -13 0 -15 24 -15 159 0 165 2 174 45 183 30 6 51 -1 74 -26z m129 18 c12 -8 22 -10 22 -5 0 6 7 11 15 11 12 0 15 -16 15 -85 0 -79 -2 -88 -26 -111 -19 -20 -31 -24 -52 -19 -34 8 -46 20 -37 35 5 8 10 9 18 1 24 -24 67 0 67 37 0 15 -9 21 -37 25 -46 8 -67 36 -58 78 6 25 27 48 45 49 3 0 16 -7 28 -16z m-745 -8 c4 -10 -2 -16 -16 -18 -21 -3 -22 -7 -25 -156 -2 -116 -6 -152 -15 -149 -16 5 -22 288 -7 317 12 23 55 27 63 6z m237 -64 c0 -54 5 -84 15 -98 15 -19 15 -19 35 5 16 19 20 38 20 97 0 57 3 74 14 74 11 0 15 -20 17 -85 4 -91 17 -118 47 -99 13 9 17 27 19 85 1 41 2 80 2 87 1 6 8 12 16 12 12 0 15 -16 15 -84 0 -69 -4 -88 -21 -110 -24 -31 -54 -34 -71 -7 -11 19 -12 19 -39 -1 -20 -15 -31 -18 -44 -10 -10 5 -26 7 -36 5 -18 -5 -19 2 -19 101 0 88 3 106 15 106 12 0 15 -15 15 -78z m-440 41 c0 -10 -4 -14 -8 -8 -4 6 -11 13 -16 18 -5 4 -2 7 7 7 10 0 17 -8 17 -17z m1507 -5 c-3 -8 -6 -5 -6 6 -1 11 2 17 5 13 3 -3 4 -12 1 -19z m-562 -238 c3 -6 -1 -7 -9 -4 -18 7 -21 14 -7 14 6 0 13 -4 16 -10z m410 -40 c3 -5 4 -10 1 -10 -3 0 -8 5 -11 10 -3 6 -4 10 -1 10 3 0 8 -4 11 -10z m-739 -26 c1 -9 0 -13 -4 -10 -3 4 -7 14 -8 22 -1 9 0 13 4 10 3 -4 7 -14 8 -22z m-741 -4 c3 -5 4 -10 1 -10 -3 0 -8 5 -11 10 -3 6 -4 10 -1 10 3 0 8 -4 11 -10z m1130 0 c3 -5 4 -10 1 -10 -3 0 -8 5 -11 10 -3 6 -4 10 -1 10 3 0 8 -4 11 -10z m-1090 -48 c-3 -3 -11 0 -18 7 -9 10 -8 11 6 5 10 -3 15 -9 12 -12z m1503 -7 c-3 -3 -9 2 -12 12 -6 14 -5 15 5 6 7 -7 10 -15 7 -18z m-731 -22 c-4 -3 -10 -3 -14 0 -3 4 0 7 7 7 7 0 10 -3 7 -7z m384 -10 c13 -16 12 -17 -3 -4 -17 13 -22 21 -14 21 2 0 10 -8 17 -17z m-366 -13 c3 -5 4 -10 1 -10 -3 0 -8 5 -11 10 -3 6 -4 10 -1 10 3 0 8 -4 11 -10z m-728 -27 c-4 -3 -7 0 -7 7 0 7 3 10 7 7 3 -4 3 -10 0 -14z"/>
 <path d="M838 723 c12 -2 32 -2 45 0 12 2 2 4 -23 4 -25 0 -35 -2 -22 -4z"/>
 <path d="M510 370 c0 -12 37 -50 49 -50 10 0 26 19 34 43 5 14 0 17 -38 17 -25 0 -45 -4 -45 -10z"/>
 <path d="M990 415 c0 -61 17 -95 48 -95 19 0 42 43 42 80 0 49 -23 79 -60 78 -30 -1 -30 -1 -30 -63z"/>
 <path d="M1164 465 c-9 -21 14 -45 42 -45 16 0 24 6 24 18 0 37 -54 59 -66 27z"/>
 </g>

</svg>